{"buffers":[{"uri":"head.bin","byteLength":4496556}],"asset":{"version":"2.0","generator":"gltfpack 0.16"},"bufferViews":[{"buffer":0,"byteOffset":0,"byteLength":1829952,"byteStride":12,"target":34962},{"buffer":0,"byteOffset":1829952,"byteLength":1829952,"byteStride":12,"target":34962},{"buffer":0,"byteOffset":3659904,"byteLength":836652,"target":34963}],"accessors":[{"bufferView":0,"byteOffset":0,"componentType":5126,"count":31379,"type":"VEC3","min":[-57.1018791,-103.417221,-92.7464676],"max":[56,102.722359,119.335991]},{"bufferView":1,"byteOffset":0,"componentType":5126,"count":31379,"type":"VEC3"},{"bufferView":2,"byteOffset":0,"componentType":5123,"count":78378,"type":"SCALAR"},{"bufferView":0,"byteOffset":376548,"componentType":5126,"count":50427,"type":"VEC3","min":[-61.8399887,-102.5,-97],"max":[61.8399887,102.410202,119.335991]},{"bufferView":1,"byteOffset":376548,"componentType":5126,"count":50427,"type":"VEC3"},{"bufferView":2,"byteOffset":156756,"componentType":5123,"count":145734,"type":"SCALAR"},{"bufferView":0,"byteOffset":981672,"componentType":5126,"count":764,"type":"VEC3","min":[50,-79.5024414,-8.51255989],"max":[56.0909615,-20.7963104,30]},{"bufferView":1,"byteOffset":981672,"componentType":5126,"count":764,"type":"VEC3"},{"bufferView":2,"byteOffset":448224,"componentType":5123,"count":1920,"type":"SCALAR"},{"bufferView":0,"byteOffset":990840,"componentType":5126,"count":21640,"type":"VEC3","min":[-32.1391487,-76,-70.9284134],"max":[51,64.3263321,69.9510498]},{"bufferView":1,"byteOffset":990840,"componentType":5126,"count":21640,"type":"VEC3"},{"bufferView":2,"byteOffset":452064,"componentType":5123,"count":53772,"type":"SCALAR"},{"bufferView":0,"byteOffset":1250520,"componentType":5126,"count":18077,"type":"VEC3","min":[-32.1019897,-28.4908104,70.31147],"max":[32.098011,64.3091736,87.811882]},{"bufferView":1,"byteOffset":1250520,"componentType":5126,"count":18077,"type":"VEC3"},{"bufferView":2,"byteOffset":559608,"componentType":5123,"count":42768,"type":"SCALAR"},{"bufferView":0,"byteOffset":1467444,"componentType":5126,"count":28474,"type":"VEC3","min":[-53.1257286,-7.1484499,1.88039005],"max":[52.7960815,83.1621094,32.8803902]},{"bufferView":1,"byteOffset":1467444,"componentType":5126,"count":28474,"type":"VEC3"},{"bufferView":2,"byteOffset":645144,"componentType":5123,"count":90438,"type":"SCALAR"},{"bufferView":0,"byteOffset":1809132,"componentType":5126,"count":774,"type":"VEC3","min":[-29.1000004,-37.4440804,88],"max":[29.1000004,-15.8770399,102.5]},{"bufferView":1,"byteOffset":1809132,"componentType":5126,"count":774,"type":"VEC3"},{"bufferView":2,"byteOffset":826020,"componentType":5123,"count":2214,"type":"SCALAR"},{"bufferView":0,"byteOffset":1818420,"componentType":5126,"count":532,"type":"VEC3","min":[-28.4516201,32.5,88],"max":[28.4516201,43.5,96.9074173]},{"bufferView":1,"byteOffset":1818420,"componentType":5126,"count":532,"type":"VEC3"},{"bufferView":2,"byteOffset":830448,"componentType":5123,"count":1476,"type":"SCALAR"},{"bufferView":0,"byteOffset":1824804,"componentType":5126,"count":429,"type":"VEC3","min":[5.57050991,-102.219612,-80],"max":[61.8399887,-45,5.60810995]},{"bufferView":1,"byteOffset":1824804,"componentType":5126,"count":429,"type":"VEC3"},{"bufferView":2,"byteOffset":833400,"componentType":5123,"count":1626,"type":"SCALAR"}],"materials":[{"pbrMetallicRoughness":{"baseColorFactor":[0.701960802,0.701960802,0.701960802,1],"metallicFactor":0},"doubleSided":true},{"pbrMetallicRoughness":{"baseColorFactor":[0.0980392173,0.0980392173,0.0980392173,1],"metallicFactor":0},"doubleSided":true},{"pbrMetallicRoughness":{"baseColorFactor":[0.188235298,0.23137255,0.588235319,1],"metallicFactor":0},"doubleSided":true},{"pbrMetallicRoughness":{"baseColorFactor":[0.768627465,0.20784314,0.152941182,1],"metallicFactor":0},"doubleSided":true},{"pbrMetallicRoughness":{"baseColorFactor":[0.964705884,0.964705884,0.952941179,1],"metallicFactor":0},"doubleSided":true},{"pbrMetallicRoughness":{"baseColorFactor":[0.627451003,0.627451003,0.627451003,1],"metallicFactor":0},"doubleSided":true}],"meshes":[{"primitives":[{"attributes":{"POSITION":0,"NORMAL":1},"mode":4,"indices":2,"material":0}]},{"primitives":[{"attributes":{"POSITION":3,"NORMAL":4},"mode":4,"indices":5,"material":1}]},{"primitives":[{"attributes":{"POSITION":6,"NORMAL":7},"mode":4,"indices":8,"material":2}]},{"primitives":[{"attributes":{"POSITION":9,"NORMAL":10},"mode":4,"indices":11,"material":3}]},{"primitives":[{"attributes":{"POSITION":12,"NORMAL":13},"mode":4,"indices":14,"material":4}]},{"primitives":[{"attributes":{"POSITION":15,"NORMAL":16},"mode":4,"indices":17,"material":5}]},{"primitives":[{"attributes":{"POSITION":18,"NORMAL":19},"mode":4,"indices":20,"material":0}]},{"primitives":[{"attributes":{"POSITION":21,"NORMAL":22},"mode":4,"indices":23,"material":0}]},{"primitives":[{"attributes":{"POSITION":24,"NORMAL":25},"mode":4,"indices":26,"material":1}]}],"nodes":[{"mesh":0},{"mesh":1},{"mesh":2},{"mesh":3},{"mesh":4},{"mesh":5},{"mesh":6},{"mesh":7},{"mesh":8},{"children":[0]},{"children":[1]},{"children":[2]},{"children":[3]},{"children":[4]},{"children":[5]},{"name":"Component13","children":[6]},{"name":"Component13","children":[7]},{"name":"Component14","children":[8]}],"scenes":[{"nodes":[9,10,11,12,13,14,15,16,17]}]}